<?xml version="1.0" encoding="utf-8"?>
<!-- Generator: Adobe Illustrator 28.2.0, SVG Export Plug-In . SVG Version: 6.00 Build 0)  -->
<svg version="1.1" id="Publicdomainvectors.org" xmlns="http://www.w3.org/2000/svg" xmlns:xlink="http://www.w3.org/1999/xlink"
	 x="0px" y="0px" viewBox="0 0 600 600" style="enable-background:new 0 0 600 600;" xml:space="preserve">
<style type="text/css">
	.st0{fill-rule:evenodd;clip-rule:evenodd;fill:#FF9966;}
	.st1{fill-rule:evenodd;clip-rule:evenodd;fill:#EB8857;}
	.st2{fill-rule:evenodd;clip-rule:evenodd;fill:#FFFFFF;}
	.st3{fill-rule:evenodd;clip-rule:evenodd;fill:#E6E6E6;}
	.st4{fill-rule:evenodd;clip-rule:evenodd;fill:#D4D4D4;}
	.st5{fill-rule:evenodd;clip-rule:evenodd;fill:#CCCCCC;}
	.st6{fill-rule:evenodd;clip-rule:evenodd;fill:#333333;}
	.st7{fill-rule:evenodd;clip-rule:evenodd;fill:#FFCC99;}
	.st8{fill-rule:evenodd;clip-rule:evenodd;fill:#996633;}
	.st9{fill-rule:evenodd;clip-rule:evenodd;fill:#8A5928;}
	.st10{fill-rule:evenodd;clip-rule:evenodd;fill:#4D4D4D;}
	.st11{fill-rule:evenodd;clip-rule:evenodd;fill:#666666;}
	.st12{fill-rule:evenodd;clip-rule:evenodd;fill:#C2C2C2;}
	.st13{fill-rule:evenodd;clip-rule:evenodd;fill:#FF6666;}
	.st14{fill-rule:evenodd;clip-rule:evenodd;fill:#99CC33;}
	.st15{fill-rule:evenodd;clip-rule:evenodd;fill:#262626;}
	.st16{fill-rule:evenodd;clip-rule:evenodd;fill:#EBB37B;}
	.st17{fill-rule:evenodd;clip-rule:evenodd;}
	.st18{fill-rule:evenodd;clip-rule:evenodd;fill:#336699;}
</style>
<rect x="0.09" y="1.35" class="st0" width="600.72" height="600.72"/>
<polygon class="st1" points="445.81,199.47 585.47,250.31 484.08,528.88 276.54,453.34 278.07,449.14 121.8,506.01 20.41,227.44 
	224.95,152.99 224.95,80.13 445.81,80.13 "/>
<rect x="59.48" y="175.13" transform="matrix(0.9397 -0.342 0.342 0.9397 -100.3481 77.6114)" class="st2" width="220.86" height="296.45"/>
<polygon class="st3" points="296.18,347.43 324.37,424.88 259.38,448.53 "/>
<polygon class="st3" points="209.47,151.21 222.98,146.3 308.35,380.87 209.47,380.87 "/>
<polygon class="st4" points="296.18,347.43 308.35,380.87 284.01,380.87 "/>
<rect x="37.1" y="214.24" transform="matrix(0.9397 -0.342 0.342 0.9397 -83.3926 40.0715)" class="st5" width="69.67" height="84.53"/>
<path class="st6" d="M65.91,281.93c-11.54,7.53-13.96,16.53-12.26,26.2c21.82-7.94,43.64-15.89,65.47-23.83
	c-4.87-11.8-13.79-14.93-25.33-12.41C84.5,275.24,75.21,278.59,65.91,281.93z"/>
<polygon class="st2" points="78.63,273.12 85.15,268.08 93.79,271.9 84.45,288.56 65.91,281.93 70.75,273.33 "/>
<polygon class="st7" points="68.05,265.89 82.45,260.64 85.15,268.08 79.75,275.65 70.75,273.33 "/>
<path class="st7" d="M62.96,229.51c8.48-3.09,17.13-0.73,20.95,9.77c3.82,10.5,0.95,24-7.53,27.09
	c-8.48,3.09-19.12-4.74-23.18-15.91C49.13,239.29,54.48,232.6,62.96,229.51z"/>
<path class="st8" d="M53.64,244.21c4.27-5.06,8.74-10.07,23.54-12.37c3.48,3.23,5.99,6.97,7.77,11.11
	c0.71-6.14-4.24-19.43-17.55-22.44c1.56,2.53-9.85,6.71-14.27,13.27c-4.83,7.17-2.58,16.84,2.59,21.93
	C54.19,251.56,52.79,247.46,53.64,244.21z"/>
<path class="st9" d="M57.77,258.65c3.27,2.98,6.64,5.67,10.88,6.11c-0.04-1.67-2-5.7-0.82-6.88c2.12-2.1,5.41-3.53,8.36-3.15
	c1.95,0.25,3.08,4.98,4.28,6.54c3.72-3.99,4.74-8.74,5.07-13.68c1.81,6.56-1.02,17.16-8.58,20.17
	C69.63,270.68,61.6,265.68,57.77,258.65L57.77,258.65z M69.59,260.31c0.63,2.2,2.48,1.96,4.25,1.12c1.78-0.21,3.55-1.35,2.74-3.48
	C74.41,259.26,72.1,260.11,69.59,260.31z"/>
<polygon class="st10" points="77.14,281.87 78.92,277.8 81.94,276.54 86.91,279.29 82.79,278.13 82.59,281.46 86,285.79 
	84.6,288.83 80.1,287 81.15,281.83 79.09,279.15 "/>
<rect x="103.25" y="187.86" transform="matrix(0.9397 -0.342 0.342 0.9397 -57.0251 59.7328)" class="st11" width="75.22" height="7.41"/>
<rect x="71.19" y="314.29" transform="matrix(0.9397 -0.342 0.342 0.9397 -102.1986 56.389)" class="st11" width="75.23" height="7.41"/>
<rect x="98.35" y="388.92" transform="matrix(0.9397 -0.342 0.342 0.9397 -126.0895 70.183)" class="st11" width="75.23" height="7.41"/>
<path class="st5" d="M106.02,420.32c36.91-13.43,142.77-51.96,179.68-65.4c0.25,0.7,0.51,1.39,0.76,2.09
	c-36.91,13.43-142.77,51.96-179.68,65.4C106.52,421.71,106.27,421.02,106.02,420.32L106.02,420.32z M110.92,219.26
	c36.91-13.43,73.82-26.87,110.73-40.3c0.26,0.7,0.51,1.39,0.76,2.09c-36.91,13.44-73.82,26.87-110.73,40.3
	C111.43,220.65,111.17,219.96,110.92,219.26L110.92,219.26z M112.77,224.34c0.25,0.7,0.5,1.39,0.76,2.09
	c36.91-13.43,73.82-26.87,110.73-40.3c-0.25-0.7-0.51-1.39-0.76-2.09C186.59,197.47,149.68,210.91,112.77,224.34L112.77,224.34z
	 M114.62,229.42c0.25,0.7,0.51,1.39,0.76,2.09c36.91-13.44,73.82-26.87,110.73-40.3c-0.25-0.7-0.51-1.39-0.76-2.09
	C188.44,202.56,151.53,215.99,114.62,229.42L114.62,229.42z M116.47,234.5c0.25,0.7,0.51,1.39,0.76,2.09
	c36.91-13.43,73.82-26.87,110.73-40.3c-0.25-0.7-0.51-1.39-0.76-2.09C190.29,207.63,153.38,221.07,116.47,234.5L116.47,234.5z
	 M118.32,239.59c0.25,0.7,0.51,1.39,0.76,2.09c36.91-13.43,73.82-26.87,110.74-40.3c-0.25-0.7-0.51-1.39-0.76-2.09
	C192.14,212.72,155.23,226.15,118.32,239.59L118.32,239.59z M120.17,244.67c0.25,0.7,0.51,1.39,0.76,2.09
	c36.91-13.43,73.82-26.87,110.74-40.3c-0.25-0.7-0.51-1.39-0.76-2.09C193.99,217.8,157.08,231.23,120.17,244.67L120.17,244.67z
	 M122.01,249.75c0.25,0.7,0.51,1.39,0.76,2.09c36.91-13.43,73.82-26.87,110.74-40.3c-0.25-0.7-0.51-1.39-0.76-2.09
	C195.84,222.88,158.93,236.31,122.01,249.75L122.01,249.75z M123.86,254.83c0.25,0.7,0.51,1.39,0.76,2.09
	c36.91-13.44,73.82-26.87,110.73-40.3c-0.25-0.7-0.51-1.39-0.76-2.09C197.68,227.96,160.78,241.39,123.86,254.83L123.86,254.83z
	 M125.71,259.91c0.25,0.7,0.51,1.39,0.76,2.09c36.91-13.43,73.82-26.87,110.73-40.3c-0.25-0.7-0.51-1.39-0.76-2.09
	C199.53,233.04,162.63,246.47,125.71,259.91L125.71,259.91z M127.56,264.99c36.91-13.43,73.82-26.87,110.74-40.3
	c0.25,0.7,0.5,1.39,0.76,2.09c-36.91,13.43-73.82,26.87-110.73,40.3C128.07,266.38,127.82,265.69,127.56,264.99L127.56,264.99z
	 M129.41,270.07l71.56-26.05l0.76,2.09l-71.56,26.05L129.41,270.07L129.41,270.07z M109.07,214.18l0.76,2.09l110.73-40.3l-0.76-2.09
	L109.07,214.18L109.07,214.18z M78.85,345.69c36.91-13.44,142.77-51.97,179.68-65.4c0.25,0.7,0.51,1.39,0.76,2.09
	c-36.91,13.43-142.77,51.96-179.68,65.4C79.36,347.08,79.11,346.38,78.85,345.69L78.85,345.69z M80.7,350.77
	c0.25,0.7,0.5,1.39,0.76,2.09c36.91-13.43,142.77-51.96,179.68-65.4c-0.25-0.7-0.5-1.39-0.76-2.09
	C223.47,298.81,117.61,337.33,80.7,350.77L80.7,350.77z M82.55,355.85c0.25,0.7,0.51,1.39,0.76,2.09
	c36.91-13.44,142.77-51.96,179.68-65.4c-0.25-0.7-0.51-1.39-0.76-2.09C225.32,303.89,119.46,342.42,82.55,355.85L82.55,355.85z
	 M84.4,360.93c0.25,0.7,0.51,1.39,0.76,2.09c36.91-13.43,142.77-51.96,179.68-65.4c-0.25-0.7-0.51-1.39-0.76-2.09
	C227.17,308.97,121.31,347.5,84.4,360.93L84.4,360.93z M86.25,366.01c0.25,0.7,0.51,1.39,0.76,2.09
	c36.91-13.44,142.77-51.97,179.68-65.4c-0.25-0.7-0.51-1.39-0.76-2.09C229.02,314.05,123.16,352.58,86.25,366.01L86.25,366.01z
	 M88.1,371.09c0.25,0.7,0.51,1.39,0.76,2.09c36.91-13.43,142.77-51.96,179.68-65.4c-0.25-0.7-0.51-1.39-0.76-2.09
	C230.87,319.13,125.01,357.66,88.1,371.09L88.1,371.09z M89.95,376.17c0.26,0.7,0.51,1.39,0.76,2.09
	c36.91-13.43,142.77-51.96,179.68-65.4c-0.25-0.7-0.51-1.39-0.76-2.09C232.72,324.21,126.86,362.74,89.95,376.17L89.95,376.17z
	 M91.8,381.25c0.25,0.7,0.51,1.39,0.76,2.09c36.91-13.43,5.92-2.15,42.83-15.59c-0.25-0.7-0.51-1.39-0.76-2.09
	C97.72,379.1,128.71,367.82,91.8,381.25L91.8,381.25z M77,340.61l0.76,2.09l179.68-65.4l-0.76-2.09L77,340.61L77,340.61z
	 M107.86,425.4c0.25,0.7,0.51,1.39,0.76,2.09c36.91-13.44,142.77-51.96,179.68-65.4c-0.25-0.7-0.5-1.39-0.76-2.09
	C250.64,373.44,144.78,411.97,107.86,425.4L107.86,425.4z M109.71,430.48c0.25,0.7,0.51,1.39,0.76,2.09
	c36.91-13.43,142.77-51.96,179.68-65.4c-0.25-0.7-0.51-1.39-0.76-2.09C252.48,378.52,146.63,417.05,109.71,430.48L109.71,430.48z
	 M111.56,435.56c0.25,0.7,0.51,1.39,0.76,2.09c36.91-13.43,142.77-51.96,179.68-65.4c-0.25-0.7-0.51-1.39-0.76-2.09
	C254.33,383.6,148.48,422.13,111.56,435.56L111.56,435.56z M113.41,440.64c0.25,0.7,0.51,1.39,0.76,2.09
	c36.91-13.44,142.77-51.96,179.68-65.4c-0.25-0.7-0.51-1.39-0.76-2.09C256.18,388.68,150.32,427.21,113.41,440.64L113.41,440.64z
	 M115.26,445.72c0.25,0.7,0.51,1.39,0.76,2.09c36.91-13.44,142.77-51.97,179.68-65.4c-0.25-0.7-0.51-1.39-0.76-2.09
	C258.03,393.76,152.17,432.29,115.26,445.72L115.26,445.72z M117.11,450.8c0.25,0.7,0.5,1.39,0.76,2.09
	c36.91-13.43,142.77-51.96,179.68-65.4c-0.25-0.7-0.51-1.39-0.76-2.09C259.88,398.84,154.02,437.37,117.11,450.8L117.11,450.8z
	 M118.96,455.89c0.25,0.7,0.51,1.39,0.76,2.09c36.91-13.43,142.77-51.96,179.68-65.4c-0.25-0.7-0.51-1.39-0.76-2.09
	C261.73,403.92,155.87,442.45,118.96,455.89L118.96,455.89z M120.81,460.96c0.25,0.7,0.5,1.39,0.76,2.09
	c36.91-13.44,142.77-51.96,179.68-65.4c-0.25-0.7-0.51-1.39-0.76-2.09C263.58,409,157.72,447.53,120.81,460.96L120.81,460.96z
	 M122.66,466.04c0.25,0.7,0.51,1.39,0.76,2.09c36.91-13.44,142.77-51.97,179.68-65.4c-0.25-0.7-0.51-1.39-0.76-2.09
	C265.43,414.08,159.57,452.61,122.66,466.04L122.66,466.04z M124.51,471.13l71.56-26.04l0.76,2.09l-71.56,26.05L124.51,471.13
	L124.51,471.13z M104.17,415.24l0.76,2.09l179.68-65.4l-0.76-2.09L104.17,415.24z"/>
<path class="st12" d="M214.4,380.87l71.29-25.95c0.25,0.7,0.51,1.39,0.76,2.09l-65.56,23.86H214.4L214.4,380.87z M295.14,380.87
	h-1.7l1.5-0.54L295.14,380.87L295.14,380.87z M284.14,380.87l9.72-3.54c-0.25-0.7-0.51-1.39-0.76-2.09l-15.46,5.62H284.14
	L284.14,380.87z M268.33,380.87l23.67-8.62c-0.25-0.7-0.51-1.39-0.76-2.09l-29.41,10.71H268.33L268.33,380.87z M252.52,380.87
	l37.64-13.7c-0.25-0.7-0.51-1.39-0.76-2.09l-43.38,15.79H252.52L252.52,380.87z M236.71,380.87l51.59-18.78
	c-0.25-0.7-0.5-1.39-0.76-2.09l-57.33,20.87H236.71L236.71,380.87z M209.47,379.27l75.13-27.35l-0.76-2.09l-74.37,27.07V379.27
	L209.47,379.27z M209.47,335.04v-2.37l60.16-21.89c0.25,0.7,0.51,1.39,0.76,2.09L209.47,335.04L209.47,335.04z M209.47,329.28
	l59.07-21.5c-0.25-0.7-0.51-1.39-0.76-2.09l-58.31,21.22V329.28L209.47,329.28z M209.47,323.53l57.22-20.83
	c-0.25-0.7-0.51-1.39-0.76-2.09l-56.46,20.55V323.53L209.47,323.53z M209.47,317.77l55.37-20.15c-0.25-0.7-0.51-1.39-0.76-2.09
	l-54.61,19.88V317.77L209.47,317.77z M209.47,312.02l53.52-19.48c-0.25-0.7-0.51-1.39-0.76-2.09l-52.76,19.2V312.02L209.47,312.02z
	 M209.47,306.27v-2.37l50.91-18.53c0.25,0.7,0.51,1.39,0.76,2.09L209.47,306.27L209.47,306.27z M209.47,300.51v-2.37l49.06-17.86
	c0.25,0.7,0.51,1.39,0.76,2.09L209.47,300.51L209.47,300.51z M209.47,294.76v-2.37l47.21-17.18l0.76,2.09L209.47,294.76
	L209.47,294.76z M209.47,237.54v-2.37l28.82-10.49c0.25,0.7,0.5,1.39,0.76,2.09L209.47,237.54L209.47,237.54z M209.47,231.79
	l27.73-10.09c-0.25-0.7-0.51-1.39-0.76-2.09l-26.97,9.82V231.79L209.47,231.79z M209.47,226.03l25.88-9.42
	c-0.25-0.7-0.51-1.39-0.76-2.09l-25.12,9.14V226.03L209.47,226.03z M209.47,220.28v-2.36l23.27-8.47c0.25,0.7,0.51,1.39,0.76,2.09
	L209.47,220.28L209.47,220.28z M209.47,214.53v-2.37l21.43-7.8c0.25,0.7,0.51,1.39,0.76,2.09L209.47,214.53L209.47,214.53z
	 M209.47,208.77l20.34-7.4c-0.25-0.7-0.51-1.39-0.76-2.09l-19.58,7.12V208.77L209.47,208.77z M209.47,203.02v-2.37l17.73-6.45
	c0.25,0.7,0.51,1.39,0.76,2.09L209.47,203.02L209.47,203.02z M209.47,197.26l16.64-6.06c-0.25-0.7-0.51-1.39-0.76-2.09l-15.88,5.78
	V197.26L209.47,197.26z M209.47,191.51v-2.37l14.03-5.11c0.25,0.7,0.51,1.39,0.76,2.09L209.47,191.51L209.47,191.51z M209.47,185.76
	l12.94-4.71c-0.25-0.7-0.5-1.39-0.76-2.09l-12.18,4.43V185.76L209.47,185.76z M209.47,180v-2.37l10.33-3.76l0.76,2.09L209.47,180z"
	/>
<rect x="219.98" y="74.53" class="st2" width="220.86" height="296.45"/>
<polygon class="st3" points="440.84,181.42 440.84,370.98 287.61,370.98 366.46,154.35 "/>
<rect x="310.59" y="85.27" class="st13" width="75.23" height="7.41"/>
<rect x="237.21" y="193.11" class="st13" width="75.22" height="7.41"/>
<rect x="237.21" y="272.53" class="st13" width="75.23" height="7.41"/>
<path class="st5" d="M237.21,292.02c39.28,0,151.93,0,191.21,0c0,0.74,0,1.48,0,2.22c-39.28,0-151.93,0-191.21,0
	C237.21,293.5,237.21,292.76,237.21,292.02L237.21,292.02z M237.21,212.6c39.28,0,151.93,0,191.21,0c0,0.74,0,1.48,0,2.22
	c-39.28,0-151.93,0-191.21,0C237.21,214.08,237.21,213.34,237.21,212.6L237.21,212.6z M237.21,218c39.28,0,151.93,0,191.21,0
	c0,0.74,0,1.48,0,2.22c-39.28,0-151.93,0-191.21,0C237.21,219.49,237.21,218.75,237.21,218L237.21,218z M237.21,223.41
	c39.28,0,151.93,0,191.21,0c0,0.74,0,1.48,0,2.22c-39.28,0-151.93,0-191.21,0C237.21,224.89,237.21,224.15,237.21,223.41
	L237.21,223.41z M237.21,228.82c39.28,0,151.93,0,191.21,0c0,0.74,0,1.48,0,2.22c-39.28,0-151.93,0-191.21,0
	C237.21,230.3,237.21,229.56,237.21,228.82L237.21,228.82z M237.21,234.23c39.28,0,151.93,0,191.21,0c0,0.74,0,1.48,0,2.22
	c-39.28,0-151.93,0-191.21,0C237.21,235.71,237.21,234.97,237.21,234.23L237.21,234.23z M237.21,239.63c39.28,0,151.93,0,191.21,0
	c0,0.74,0,1.48,0,2.22c-39.28,0-151.93,0-191.21,0C237.21,241.12,237.21,240.37,237.21,239.63L237.21,239.63z M237.21,245.04
	c39.28,0,151.93,0,191.21,0c0,0.74,0,1.48,0,2.22c-39.28,0-151.93,0-191.21,0C237.21,246.52,237.21,245.78,237.21,245.04
	L237.21,245.04z M237.21,250.45c39.28,0,6.3,0,45.58,0c0,0.74,0,1.48,0,2.22c-39.28,0-6.3,0-45.58,0
	C237.21,251.93,237.21,251.19,237.21,250.45L237.21,250.45z M237.21,207.19h191.21v2.22H237.21V207.19L237.21,207.19z
	 M310.59,104.76c39.28,0,78.56,0,117.84,0c0,0.74,0,1.48,0,2.22c-39.28,0-78.56,0-117.84,0
	C310.59,106.25,310.59,105.5,310.59,104.76L310.59,104.76z M310.59,110.17c39.28,0,78.56,0,117.84,0c0,0.74,0,1.48,0,2.22
	c-39.28,0-78.56,0-117.84,0C310.59,111.65,310.59,110.91,310.59,110.17L310.59,110.17z M310.59,115.58c39.28,0,78.56,0,117.84,0
	c0,0.74,0,1.48,0,2.22c-39.28,0-78.56,0-117.84,0C310.59,117.06,310.59,116.32,310.59,115.58L310.59,115.58z M310.59,120.98
	c39.28,0,78.56,0,117.84,0c0,0.74,0,1.48,0,2.22c-39.28,0-78.56,0-117.84,0C310.59,122.47,310.59,121.73,310.59,120.98
	L310.59,120.98z M310.59,126.39c39.28,0,78.56,0,117.84,0c0,0.74,0,1.48,0,2.22c-39.28,0-78.56,0-117.84,0
	C310.59,127.87,310.59,127.13,310.59,126.39L310.59,126.39z M310.59,131.8c39.28,0,78.56,0,117.84,0c0,0.74,0,1.48,0,2.22
	c-39.28,0-78.56,0-117.84,0C310.59,133.28,310.59,132.54,310.59,131.8L310.59,131.8z M310.59,137.2c39.28,0,78.56,0,117.84,0
	c0,0.74,0,1.48,0,2.22c-39.28,0-78.56,0-117.84,0C310.59,138.69,310.59,137.95,310.59,137.2L310.59,137.2z M310.59,142.61
	c39.28,0,78.56,0,117.84,0c0,0.74,0,1.48,0,2.22c-39.28,0-78.56,0-117.84,0C310.59,144.09,310.59,143.35,310.59,142.61
	L310.59,142.61z M310.59,148.02c39.28,0,78.56,0,117.84,0c0,0.74,0,1.48,0,2.22c-39.28,0-78.56,0-117.84,0
	C310.59,149.5,310.59,148.76,310.59,148.02L310.59,148.02z M310.59,153.43c39.28,0,78.56,0,117.84,0c0,0.74,0,1.48,0,2.22
	c-39.28,0-78.56,0-117.84,0C310.59,154.91,310.59,154.17,310.59,153.43L310.59,153.43z M310.59,158.83h76.15v2.22h-76.15V158.83
	L310.59,158.83z M310.59,99.36h117.84v2.22H310.59V99.36L310.59,99.36z M237.21,297.43c39.28,0,151.93,0,191.21,0
	c0,0.74,0,1.48,0,2.22c-39.28,0-151.93,0-191.21,0C237.21,298.91,237.21,298.17,237.21,297.43L237.21,297.43z M237.21,302.83
	c39.28,0,151.93,0,191.21,0c0,0.74,0,1.48,0,2.22c-39.28,0-151.93,0-191.21,0C237.21,304.32,237.21,303.57,237.21,302.83
	L237.21,302.83z M237.21,308.24c39.28,0,151.93,0,191.21,0c0,0.74,0,1.48,0,2.22c-39.28,0-151.93,0-191.21,0
	C237.21,309.72,237.21,308.98,237.21,308.24L237.21,308.24z M237.21,313.65c39.28,0,151.93,0,191.21,0c0,0.74,0,1.48,0,2.22
	c-39.28,0-151.93,0-191.21,0C237.21,315.13,237.21,314.39,237.21,313.65L237.21,313.65z M237.21,319.05c39.28,0,151.93,0,191.21,0
	c0,0.74,0,1.48,0,2.22c-39.28,0-151.93,0-191.21,0C237.21,320.54,237.21,319.79,237.21,319.05L237.21,319.05z M237.21,324.46
	c39.28,0,151.93,0,191.21,0c0,0.74,0,1.48,0,2.22c-39.28,0-151.93,0-191.21,0C237.21,325.94,237.21,325.2,237.21,324.46
	L237.21,324.46z M237.21,329.87c39.28,0,151.93,0,191.21,0c0,0.74,0,1.48,0,2.22c-39.28,0-151.93,0-191.21,0
	C237.21,331.35,237.21,330.61,237.21,329.87L237.21,329.87z M237.21,335.27c39.28,0,151.93,0,191.21,0c0,0.74,0,1.48,0,2.22
	c-39.28,0-151.93,0-191.21,0C237.21,336.76,237.21,336.01,237.21,335.27L237.21,335.27z M237.21,340.68c39.28,0,151.93,0,191.21,0
	c0,0.74,0,1.48,0,2.22c-39.28,0-151.93,0-191.21,0C237.21,342.16,237.21,341.42,237.21,340.68L237.21,340.68z M237.21,346.09h76.15
	v2.22h-76.15V346.09L237.21,346.09z M237.21,286.61h191.21v2.22H237.21V286.61z"/>
<path class="st12" d="M316.35,292.02h112.08c0,0.74,0,1.48,0,2.22H315.54L316.35,292.02L316.35,292.02z M366.46,154.35l3.58,1.3
	h-4.05L366.46,154.35L366.46,154.35z M378.78,158.83l6.11,2.22h-20.87l0.81-2.22H378.78L378.78,158.83z M295.86,348.31l0.81-2.22
	h16.7v2.22H295.86L295.86,348.31z M297.83,342.9l0.81-2.22h129.79c0,0.74,0,1.48,0,2.22H297.83L297.83,342.9z M299.79,337.5
	l0.81-2.22h127.82c0,0.74,0,1.48,0,2.22H299.79L299.79,337.5z M301.76,332.09l0.81-2.22h125.85c0,0.74,0,1.48,0,2.22H301.76
	L301.76,332.09z M303.73,326.68l0.81-2.22h123.89c0,0.74,0,1.48,0,2.22H303.73L303.73,326.68z M305.7,321.28l0.81-2.22h121.92
	c0,0.74,0,1.48,0,2.22H305.7L305.7,321.28z M307.67,315.87l0.81-2.22h119.95c0,0.74,0,1.48,0,2.22H307.67L307.67,315.87z
	 M309.63,310.46l0.81-2.22h117.98c0,0.74,0,1.48,0,2.22H309.63L309.63,310.46z M311.6,305.06l0.81-2.22h116.01c0,0.74,0,1.48,0,2.22
	H311.6L311.6,305.06z M313.57,299.65l0.81-2.22h114.05c0,0.74,0,1.48,0,2.22H313.57L313.57,299.65z M317.5,288.83l0.81-2.22h110.11
	v2.22H317.5L317.5,288.83z M332.64,247.26l0.81-2.22h94.98c0,0.74,0,1.48,0,2.22H332.64L332.64,247.26z M334.61,241.86l0.81-2.22
	h93.01c0,0.74,0,1.48,0,2.22H334.61L334.61,241.86z M336.57,236.45l0.81-2.22h91.04c0,0.74,0,1.48,0,2.22H336.57L336.57,236.45z
	 M338.54,231.04l0.81-2.22h89.08c0,0.74,0,1.48,0,2.22H338.54L338.54,231.04z M340.51,225.63l0.81-2.22h87.11c0,0.74,0,1.48,0,2.22
	H340.51L340.51,225.63z M342.48,220.23l0.81-2.22h85.14c0,0.74,0,1.48,0,2.22H342.48L342.48,220.23z M344.44,214.82l0.81-2.22h83.17
	c0,0.74,0,1.48,0,2.22H344.44L344.44,214.82z M346.41,209.41l0.81-2.22h81.21v2.22H346.41z"/>
<g>
	
		<rect x="277.81" y="235.8" transform="matrix(0.342 -0.9397 0.9397 0.342 -45.0211 628.1541)" class="st2" width="296.45" height="220.86"/>
	
		<rect x="484.8" y="188.99" transform="matrix(0.342 -0.9397 0.9397 0.342 108.4911 608.1455)" class="st14" width="7.41" height="75.22"/>
	<path class="st5" d="M447.76,228.57c36.91,13.43,73.82,26.87,110.73,40.3c-0.25,0.7-0.51,1.39-0.76,2.09
		c-36.91-13.43-73.82-26.87-110.73-40.3C447.26,229.96,447.51,229.27,447.76,228.57L447.76,228.57z M445.92,233.65
		c-0.25,0.7-0.51,1.39-0.76,2.09c36.91,13.43,73.82,26.87,110.73,40.3c0.25-0.7,0.51-1.39,0.76-2.09
		C519.74,260.52,482.82,247.08,445.92,233.65L445.92,233.65z M444.06,238.73c-0.25,0.7-0.5,1.39-0.76,2.09
		c36.91,13.43,73.82,26.87,110.73,40.3c0.25-0.7,0.51-1.39,0.76-2.09C517.89,265.6,480.97,252.17,444.06,238.73L444.06,238.73z
		 M442.22,243.81c-0.25,0.7-0.51,1.39-0.76,2.09c36.91,13.43,73.82,26.87,110.73,40.3c0.25-0.7,0.51-1.39,0.76-2.09
		C516.04,270.68,479.13,257.25,442.22,243.81L442.22,243.81z M440.37,248.89c-0.25,0.7-0.51,1.39-0.76,2.09
		c36.91,13.43,73.82,26.87,110.73,40.3c0.25-0.7,0.51-1.39,0.76-2.09C514.19,275.76,477.28,262.33,440.37,248.89L440.37,248.89z
		 M438.52,253.97c-0.25,0.7-0.51,1.39-0.76,2.09c36.91,13.43,73.82,26.87,110.73,40.3c0.25-0.7,0.51-1.39,0.76-2.09
		C512.34,280.84,475.43,267.41,438.52,253.97L438.52,253.97z M436.67,259.05c-0.25,0.7-0.51,1.39-0.76,2.09
		c36.91,13.43,73.82,26.87,110.73,40.3c0.25-0.7,0.5-1.39,0.76-2.09C510.49,285.92,473.58,272.49,436.67,259.05L436.67,259.05z
		 M434.82,264.14c-0.25,0.7-0.51,1.39-0.76,2.09c36.91,13.44,73.82,26.87,110.73,40.3c0.25-0.7,0.51-1.39,0.76-2.09
		C508.64,291,471.73,277.57,434.82,264.14L434.82,264.14z M432.97,269.22c-0.25,0.7-0.51,1.39-0.76,2.09
		c36.91,13.43,73.82,26.87,110.73,40.3c0.25-0.7,0.51-1.39,0.76-2.09C506.79,296.08,469.88,282.65,432.97,269.22L432.97,269.22z
		 M431.12,274.3c36.91,13.43,73.83,26.87,110.74,40.3c-0.25,0.7-0.51,1.39-0.76,2.09c-36.91-13.43-73.82-26.87-110.73-40.3
		C430.61,275.69,430.87,274.99,431.12,274.3L431.12,274.3z M429.27,279.38l71.56,26.05l-0.76,2.09l-71.56-26.05L429.27,279.38
		L429.27,279.38z M449.61,223.49l-0.76,2.09l110.74,40.3l0.76-2.09L449.61,223.49z"/>
	
		<rect x="378.97" y="265.23" transform="matrix(0.342 -0.9397 0.9397 0.342 -32.7857 558.855)" class="st14" width="7.41" height="75.23"/>
	<path class="st5" d="M341.93,304.81c36.91,13.43,142.77,51.96,179.68,65.4c-0.25,0.7-0.51,1.39-0.76,2.09
		c-36.91-13.43-142.77-51.96-179.68-65.4C341.43,306.2,341.68,305.5,341.93,304.81L341.93,304.81z M340.09,309.89
		c-0.25,0.7-0.51,1.39-0.76,2.09c36.91,13.43,142.77,51.96,179.68,65.4c0.25-0.7,0.51-1.39,0.76-2.09
		C482.86,361.85,377,323.32,340.09,309.89L340.09,309.89z M338.24,314.97c-0.25,0.7-0.51,1.39-0.76,2.09
		c36.91,13.44,142.77,51.97,179.68,65.4c0.25-0.7,0.51-1.39,0.76-2.09C481,366.93,375.15,328.4,338.24,314.97L338.24,314.97z
		 M336.39,320.05c-0.25,0.7-0.51,1.39-0.76,2.09c36.91,13.43,142.77,51.96,179.68,65.4c0.25-0.7,0.51-1.39,0.76-2.09
		C479.16,372.01,373.3,333.48,336.39,320.05L336.39,320.05z M334.54,325.13c-0.25,0.7-0.51,1.39-0.76,2.09
		c36.91,13.43,142.77,51.96,179.68,65.4c0.25-0.7,0.51-1.39,0.76-2.09C477.31,377.09,371.45,338.56,334.54,325.13L334.54,325.13z
		 M332.69,330.21c-0.25,0.7-0.51,1.39-0.76,2.09c36.91,13.43,142.77,51.96,179.68,65.4c0.25-0.7,0.51-1.39,0.76-2.09
		C475.46,382.18,369.6,343.64,332.69,330.21L332.69,330.21z M330.84,335.29c-0.25,0.7-0.51,1.39-0.76,2.09
		c36.91,13.43,142.77,51.96,179.68,65.4c0.25-0.7,0.51-1.39,0.76-2.09C473.61,387.25,367.75,348.73,330.84,335.29L330.84,335.29z
		 M328.99,340.37c-0.25,0.7-0.51,1.39-0.76,2.09c36.91,13.43,5.92,2.15,42.83,15.59c0.25-0.7,0.51-1.39,0.76-2.09
		C334.91,342.53,365.9,353.81,328.99,340.37L328.99,340.37z M343.78,299.72l-0.76,2.09l179.68,65.4l0.76-2.09L343.78,299.72z"/>
	
		<rect x="351.81" y="339.86" transform="matrix(0.342 -0.9397 0.9397 0.342 -120.7824 582.4454)" class="st14" width="7.41" height="75.22"/>
	<path class="st5" d="M314.77,379.44c36.91,13.44,142.77,51.97,179.68,65.4c-0.25,0.7-0.51,1.39-0.76,2.09
		c-36.91-13.44-142.77-51.97-179.68-65.4C314.26,380.83,314.52,380.13,314.77,379.44L314.77,379.44z M312.92,384.52
		c-0.25,0.7-0.51,1.39-0.76,2.09c36.91,13.43,142.77,51.96,179.68,65.4c0.25-0.7,0.51-1.39,0.76-2.09
		C455.69,436.48,349.83,397.95,312.92,384.52L312.92,384.52z M311.07,389.6c-0.25,0.7-0.51,1.39-0.76,2.09
		c36.91,13.44,142.77,51.97,179.68,65.4c0.25-0.7,0.51-1.39,0.76-2.09C453.84,441.56,347.98,403.03,311.07,389.6L311.07,389.6z
		 M309.22,394.68c-0.25,0.7-0.51,1.39-0.76,2.09c36.91,13.44,142.77,51.97,179.68,65.4c0.25-0.7,0.51-1.39,0.76-2.09
		C451.99,446.64,346.13,408.12,309.22,394.68L309.22,394.68z M307.37,399.76c-0.25,0.7-0.51,1.39-0.76,2.09
		c36.91,13.44,142.77,51.96,179.68,65.4c0.25-0.7,0.51-1.39,0.76-2.09C450.15,451.72,344.29,413.19,307.37,399.76L307.37,399.76z
		 M305.52,404.84c-0.25,0.7-0.51,1.39-0.76,2.09c36.91,13.43,142.77,51.96,179.68,65.4c0.25-0.7,0.51-1.39,0.76-2.09
		C448.3,456.81,342.44,418.28,305.52,404.84L305.52,404.84z M303.67,409.92c-0.25,0.7-0.51,1.39-0.76,2.09
		c36.91,13.43,142.77,51.96,179.68,65.4c0.25-0.7,0.51-1.39,0.76-2.09C446.45,461.89,340.59,423.36,303.67,409.92L303.67,409.92z
		 M301.83,415c-0.25,0.7-0.51,1.39-0.76,2.09c36.91,13.44,142.77,51.97,179.68,65.4c0.25-0.7,0.51-1.39,0.76-2.09
		C444.6,466.97,338.74,428.44,301.83,415L301.83,415z M299.98,420.08c-0.25,0.7-0.5,1.39-0.76,2.09
		c36.91,13.44,142.77,51.96,179.68,65.4c0.25-0.7,0.51-1.39,0.76-2.09C442.75,472.05,336.89,433.52,299.98,420.08L299.98,420.08z
		 M298.13,425.17c-0.25,0.7-0.51,1.39-0.76,2.09c36.91,13.44,142.77,51.96,179.68,65.4c0.25-0.7,0.51-1.39,0.76-2.09
		C440.9,477.13,335.04,438.6,298.13,425.17L298.13,425.17z M296.28,430.25l-0.76,2.09l71.56,26.04l0.76-2.09L296.28,430.25
		L296.28,430.25z M316.62,374.36l-0.76,2.09l179.68,65.4l0.76-2.09L316.62,374.36z"/>
	<g>
		
			<rect x="351.69" y="197.21" transform="matrix(0.342 -0.9397 0.9397 0.342 41.1638 522.8726)" class="st5" width="84.53" height="69.67"/>
		
			<rect x="378.8" y="229.32" transform="matrix(0.342 -0.9397 0.9397 0.342 28.5205 527.7915)" class="st15" width="24.7" height="28.42"/>
		<path class="st8" d="M373,247.65c-11.34,1.4-17.32,4.9-21.98,13.74c21.82,7.94,35.5,12.92,57.32,20.86
			c2.47-13.37-1.08-16.81-7.53-24.37C391.54,254.47,382.27,251.06,373,247.65z"/>
		<polygon class="st7" points="384.95,236.73 399.35,241.97 396.64,249.41 400.8,257.88 382.95,264.64 373,247.65 382.24,244.17 		
			"/>
		<path class="st16" d="M384.95,236.73l14.4,5.24l-1.69,4.66c-2.23,0.49-4.45,0.44-6.53-0.32c-3.16-1.15-5.57-3.65-7.14-6.9
			L384.95,236.73z"/>
		<path class="st7" d="M404.44,205.59c8.48,3.09,13.59,10.45,9.77,20.95c-3.82,10.5-14.7,19-23.18,15.91
			c-8.48-3.09-11.6-15.92-7.53-27.09C387.55,204.19,395.95,202.51,404.44,205.59z"/>
		<path class="st17" d="M394.46,202.52c-1.88-0.8-2.19-1.05-4.04-0.17c-14.42,11.89-13.12,35.68-18.21,51.13
			c9.56-11.39,14.01-43.44,21.92-45.36c4.13,5.35,8.55,8.94,16.87,12.34c-4.08,14.16-12.39,29.99-10.42,43.24
			c2.56-15.68,17.4-32.3,17.06-46.33C417.08,200.98,399.26,198.32,394.46,202.52z"/>
	</g>
</g>
<rect x="226.38" y="84.16" class="st5" width="69.67" height="84.53"/>
<path class="st8" d="M246.86,148.26c-13.42,3.13-18.77,10.76-20.48,20.43c23.22,0,46.44,0,69.67,0
	c-0.54-12.75-7.85-18.74-19.56-20.33C266.61,148.33,256.73,148.3,246.86,148.26z"/>
<polygon class="st2" points="261.82,144.33 269.68,141.83 276.48,148.37 262.01,160.83 246.86,148.26 254.35,141.83 "/>
<polygon class="st7" points="254.35,133.91 269.68,133.91 269.68,141.83 262.01,147.09 254.35,141.83 "/>
<path class="st16" d="M254.35,133.91h15.32v4.95c-1.92,1.23-4.04,1.93-6.25,1.93c-3.36,0-6.48-1.52-9.08-4.04V133.91z"/>
<path class="st7" d="M262.01,97.99c9.03,0,16.35,5.17,16.35,16.34c0,11.17-7.32,22.88-16.35,22.88c-9.03,0-16.34-11-16.34-22.88
	C245.67,102.45,252.99,97.99,262.01,97.99z"/>
<path class="st17" d="M248.22,108.62c8.31,1.84,16.17,2.54,26.36-3.58c2.17,4.22,3.24,8.6,3.51,13.1
	c4.16-32.32-39.27-28.54-31.84,1.99C246.23,115.71,246.32,111.38,248.22,108.62z"/>
<polygon class="st18" points="257.43,152.04 260.5,148.83 263.77,148.67 267.49,152.96 264.02,150.46 262.69,153.52 264.42,158.76 
	262.06,161.14 258.45,157.88 261.21,153.37 260.19,150.15 "/>
</svg>
